<svg height="104px" version="1.1" viewBox="0 0 104 104" width="104px" xmlns="http://www.w3.org/2000/svg" xmlns:xlink="http://www.w3.org/1999/xlink"><title>Arrow</title><g fill="none" fill-rule="evenodd" stroke="none" stroke-width="1"><g fill="#ff17e9" transform="translate(-1012.000000, -8195.000000)"><g transform="translate(1063.796521, 8247.186829) rotate(135.000000) translate(-1063.796521, -8247.186829) translate(1037.000000, 8201.000000)"><g transform="translate(0.000000, 8.587299)"><path d="M10.7604019,35.1306679 C3.44261459,37.5877514 0.446046172,44.1306037 0.0452810851,51.9248237 C-0.516096,62.8799059 4.24721257,76.3657746 8.5133723,83.0665925 C9.01203422,83.8493491 9.96958508,84.0195779 10.6518035,83.4491835 C11.3324923,82.877034 11.4823849,81.7783701 10.983723,80.9956135 C7.02807955,74.7827019 2.5783567,62.2901944 3.09996321,52.1319088 C3.42118713,45.8487952 5.72179265,40.4800795 11.6200762,38.4986171 C12.8957942,38.0703826 14.0567534,38.1300631 15.101496,38.5512775 C14.7619164,39.332279 14.4376183,40.1150134 14.1301611,40.89777 C12.901862,44.0323067 11.0663264,52.7356752 11.7516042,59.1346226 C12.2946256,64.1979699 14.3794919,67.8291506 18.6808335,67.6957661 C21.1435504,67.6202985 22.9608127,65.9126494 24.0514445,63.1133292 C25.3959961,59.6611268 25.5795616,54.3801334 24.6342454,49.3167862 C23.8495412,45.106398 22.2923191,41.0662522 20.1079964,38.3494199 C19.8020688,37.9685719 19.4839083,37.612324 19.1550362,37.2823728 C26.3259784,22.6960716 39.2682958,9.16103644 52.5562598,3.39566564 C53.3455529,3.05342899 53.7431931,2.04073541 53.4449137,1.13336954 C53.1466343,0.227758773 52.2625574,-0.228524215 51.4732643,0.113712432 C37.6132161,6.12654662 24.103465,20.200343 16.5684695,35.4044246 C14.8476269,34.5760365 12.9034244,34.4110934 10.7604019,35.1306679 Z M16.9217501,42.3369104 C15.8188812,45.1502712 14.1730357,52.9620452 14.7879501,58.7063555 C15.113763,61.7461188 16.0177671,64.2663811 18.5997956,64.1874035 C19.8663356,64.1487921 20.6984395,63.120322 21.258287,61.6811731 C22.001691,59.7734232 22.2663661,57.1864994 22.148584,54.4328109 C21.9634978,50.1609956 20.8392151,45.4855046 18.8598639,42.1789721 C18.4942804,41.5682114 18.0981013,41.0048321 17.6713323,40.5063951 C17.4112939,41.1154008 17.1603735,41.7261496 16.9217501,42.3369104 Z"></path></g><g transform="translate(39.276765, 8.602619)"><path d="M13.6955376,2.96735024 C14.2783296,2.26708136 14.2569416,1.15614745 13.6466161,0.485714598 C13.0362906,-0.182963193 12.0664794,-0.158380369 11.4836874,0.541888511 C6.18655163,6.90398045 1.31003956,16.1127581 0.0220845482,24.7388775 C-0.120171765,25.6936301 0.4397384,26.6010029 1.27186135,26.7642234 C2.10398431,26.927444 2.89473816,26.2868626 3.03699448,25.33211 C4.23011197,17.3483425 8.79304869,8.85382112 13.6955376,2.96735024 Z"></path></g><g transform="translate(38.558032, 11.390827) scale(-1, 1) rotate(-111.000000) translate(-38.558032, -11.390827) translate(31.498590, -2.003982)"><path d="M13.6955376,2.96735024 C14.2783296,2.26708136 14.2569416,1.15614745 13.6466161,0.485714598 C13.0362906,-0.182963193 12.0664794,-0.158380369 11.4836874,0.541888511 C6.18655163,6.90398045 1.31003956,16.1127581 0.0220845482,24.7388775 C-0.120171765,25.6936301 0.4397384,26.6010029 1.27186135,26.7642234 C2.10398431,26.927444 2.89473816,26.2868626 3.03699448,25.33211 C4.23011197,17.3483425 8.79304869,8.85382112 13.6955376,2.96735024 Z"></path></g></g></g></g></svg>