<svg height="129px" version="1.1" viewBox="0 0 400 242" xmlns="http://www.w3.org/2000/svg" xmlns:xlink="http://www.w3.org/1999/xlink"><title>Group 69</title><g fill="none" fill-rule="evenodd" stroke="none" stroke-width="1"><g transform="translate(-4069.000000, -389.000000)"><g transform="translate(4072.000000, 392.000000)"><line stroke="#312F42" stroke-linecap="round" stroke-linejoin="round" stroke-width="5" x1="168.07" x2="127.95" y1="201.42" y2="201.42"></line><ellipse cx="104.359574" cy="203.690788" rx="25.64" ry="18.81" stroke="#312F42" stroke-linecap="round" stroke-linejoin="round" stroke-width="5" transform="translate(104.359574, 203.690788) rotate(-40.580000) translate(-104.359574, -203.690788) "></ellipse><path d="M145.74,203.57 C141.97,215.69 129.08,225.57 116.95,225.57 L97.48,225.57" stroke="#312F42" stroke-linecap="round" stroke-linejoin="round" stroke-width="5"></path><path d="M249.96,203.57 C246.19,215.69 233.3,225.57 221.17,225.57 L201.7,225.57" stroke="#312F42" stroke-linecap="round" stroke-linejoin="round" stroke-width="5"></path><path d="M335.44,203.57 C331.67,215.69 318.78,225.57 306.65,225.57 L287.16,225.57" stroke="#312F42" stroke-linecap="round" stroke-linejoin="round" stroke-width="5"></path><path d="M372.98,186.5 L381.98,157.39 C383.38,152.9 380.87,149.26 376.38,149.26 L343.49,149.26" stroke="#312F42" stroke-linecap="round" stroke-linejoin="round" stroke-width="5"></path><path d="M272.22,165.51 L263.59,193.29 C262.19,197.78 264.7,201.42 269.19,201.42 L360.19,201.42 C364.004609,201.212923 367.48885,199.190056 369.56,195.98" stroke="#312F42" stroke-linecap="round" stroke-linejoin="round" stroke-width="5"></path><path d="M143.3,115.36 L147.62,109.71 C153.5,102.01 162.7,97.07 171.15,97.07 L217.24,97.07 C224.34,97.07 229.89,100.57 232.09,106.41 L244.97,140.66 C246.97,146.03 252.08,149.23 258.59,149.23 L343.53,149.23" stroke="#312F42" stroke-linecap="round" stroke-linejoin="round" stroke-width="5"></path><line stroke="#312F42" stroke-linecap="round" stroke-linejoin="round" stroke-width="5" x1="129.05" x2="135.92" y1="134.03" y2="125.04"></line><path d="M67.87,161.16 C69.87,154.59 76.87,149.26 83.47,149.26 L104.67,149.26 C110.538623,149.070927 116.183482,146.963326 120.74,143.26" stroke="#312F42" stroke-linecap="round" stroke-linejoin="round" stroke-width="5"></path><path d="M83.16,201.42 L67.26,201.42 C60.69,201.42 57.02,196.09 59.06,189.52 L64.82,171" stroke="#312F42" stroke-linecap="round" stroke-linejoin="round" stroke-width="5"></path><line stroke="#312F42" stroke-linecap="round" stroke-linejoin="round" stroke-width="5" x1="274.21" x2="230.85" y1="201.42" y2="201.42"></line><path d="M315.78,114.36 L325.68,140.7 C327.68,146.07 332.8,149.27 339.31,149.27" stroke="#312F42" stroke-linecap="round" stroke-linejoin="round" stroke-width="5"></path><path d="M217.24,97.1 L297.96,97.1 C305.05,97.1 310.6,100.6 312.8,106.44 L315.8,114.35" stroke="#312F42" stroke-linecap="round" stroke-linejoin="round" stroke-width="5"></path><ellipse cx="208.359815" cy="203.694342" rx="25.64" ry="18.81" stroke="#312F42" stroke-linecap="round" stroke-linejoin="round" stroke-width="5" transform="translate(208.359815, 203.694342) rotate(-40.580000) translate(-208.359815, -203.694342) "></ellipse><path d="M270.79,203.57 C267.03,215.7 273.79,225.57 285.93,225.57 C298.07,225.57 310.93,215.74 314.72,203.57" stroke="#312F42" stroke-linecap="round" stroke-linejoin="round" stroke-width="5"></path><line stroke="#312F42" stroke-linecap="round" stroke-linejoin="round" stroke-width="5" x1="259.92" x2="139.66" y1="149.26" y2="149.26"></line><ellipse cx="358.024473" cy="169.577463" fill="#312F42" fill-rule="nonzero" rx="10.36" ry="7.6" stroke="#312F42" transform="translate(358.024473, 169.577463) rotate(-40.580000) translate(-358.024473, -169.577463) "></ellipse><ellipse cx="293.09024" cy="169.575021" fill="#312F42" fill-rule="nonzero" rx="10.36" ry="7.6" stroke="#312F42" transform="translate(293.090240, 169.575021) rotate(-40.580000) translate(-293.090240, -169.575021) "></ellipse><line stroke="#312F42" stroke-linecap="round" stroke-linejoin="round" stroke-width="5" x1="354.24" x2="59.18" y1="225.53" y2="225.53"></line><line stroke="#312F42" stroke-linecap="round" stroke-linejoin="round" stroke-width="5" x1="158.56" x2="82.92" y1="116.23" y2="116.23"></line><path d="M82.92,115.91 C77.0887765,115.911175 72.1565025,111.597372 71.3810395,105.817941 C70.6055766,100.03851 74.2262489,94.5771038 79.8515329,93.0410867 C85.4768169,91.5050696 91.3706319,94.3684884 93.64,99.74" stroke="#312F42" stroke-linecap="round" stroke-linejoin="round" stroke-width="5"></path><line stroke="#312F42" stroke-linecap="round" stroke-linejoin="round" stroke-width="5" x1="93.64" x2="-2.27373675e-13" y1="162.9" y2="162.9"></line><line stroke="#312F42" stroke-linecap="round" stroke-linejoin="round" stroke-width="5" x1="168.07" x2="96.17" y1="134.65" y2="134.65"></line><line stroke="#312F42" stroke-linecap="round" stroke-linejoin="round" stroke-width="5" x1="62.24" x2="41.09" y1="134.65" y2="134.65"></line><polygon fill="#312F42" fill-rule="nonzero" points="103.95 55.59 94.72 19.3 106.16 19.3 110.36 41.18 118.97 19.3 127.53 19.3 131.47 41.18 140.33 19.3 151.79 19.3 134.89 55.59 125.45 55.59 121.51 35.84 113.37 55.59"></polygon><path d="M148.39,37.44 C149.47,27.13 157.82,18.15 170.39,18.15 C182.96,18.15 189.48,27.15 188.39,37.44 C187.3,47.73 178.95,56.74 166.39,56.74 C153.83,56.74 147.3,47.76 148.39,37.44 Z M177.17,37.44 C177.73,32.26 175.25,27.8 169.39,27.8 C163.53,27.8 160.16,32.26 159.64,37.44 C159.12,42.62 161.56,47.09 167.36,47.09 C173.16,47.09 176.65,42.63 177.16,37.44 L177.17,37.44 Z" fill="#312F42" fill-rule="nonzero"></path><path d="M190.85,37.44 C191.94,27.13 200.29,18.15 212.85,18.15 C225.41,18.15 231.93,27.15 230.85,37.44 C229.77,47.73 221.41,56.74 208.85,56.74 C196.29,56.74 189.76,47.76 190.85,37.44 Z M219.63,37.44 C220.2,32.26 217.71,27.8 211.85,27.8 C205.99,27.8 202.62,32.26 202.1,37.44 C201.58,42.62 204.02,47.09 209.83,47.09 C215.64,47.09 219.16,42.63 219.63,37.44 Z" fill="#312F42" fill-rule="nonzero"></path><polygon fill="#312F42" fill-rule="nonzero" points="233.16 55.59 237 19.3 247.78 19.3 246.33 33.09 256.44 33.09 257.89 19.3 268.68 19.3 264.84 55.59 254.06 55.59 255.46 42.06 245.34 42.06 243.94 55.59"></polygon><path d="M270.9,37.44 C271.99,27.13 280.34,18.15 292.9,18.15 C305.46,18.15 311.99,27.15 310.9,37.44 C309.81,47.73 301.46,56.74 288.9,56.74 C276.34,56.74 269.82,47.76 270.9,37.44 Z M299.68,37.44 C300.25,32.26 297.77,27.8 291.91,27.8 C286.05,27.8 282.68,32.26 282.16,37.44 C281.64,42.62 284.08,47.09 289.88,47.09 C295.68,47.09 299.16,42.63 299.68,37.44 Z" fill="#312F42" fill-rule="nonzero"></path><path d="M313.37,37.44 C314.46,27.13 322.81,18.15 335.37,18.15 C347.93,18.15 354.45,27.15 353.37,37.44 C352.29,47.73 343.93,56.74 331.37,56.74 C318.81,56.74 312.28,47.76 313.37,37.44 Z M342.15,37.44 C342.72,32.26 340.23,27.8 334.37,27.8 C328.51,27.8 325.14,32.26 324.62,37.44 C324.1,42.62 326.54,47.09 332.35,47.09 C338.16,47.09 341.63,42.63 342.16,37.44 L342.15,37.44 Z" fill="#312F42" fill-rule="nonzero"></path><path d="M355.42,49.84 C355.842265,46.284306 358.839495,43.5953628 362.42,43.56 C364.063953,43.4962552 365.653537,44.1547755 366.770793,45.3624114 C367.888048,46.5700473 368.421177,48.2059573 368.23,49.84 C367.774823,53.4287297 364.737345,56.1287099 361.12,56.16 C359.47958,56.2168732 357.897856,55.5460073 356.798536,54.3271117 C355.699215,53.108216 355.19465,51.4658627 355.42,49.84 L355.42,49.84 Z M357.28,41.84 L359.67,19.29 L370.4,19.29 L368.02,41.84 L357.28,41.84 Z" fill="#312F42" fill-rule="nonzero"></path><path d="M137.59,-1.13686838e-13 L91.49,-1.13686838e-13 C80.0632285,-1.13686838e-13 70.8,9.26322853 70.8,20.69 L70.8,54.2 C70.8,65.6267715 80.0632285,74.89 91.49,74.89 L340.37,74.89 C347.09,81.7 337.21,97.1103723 325.49,97.1103723 C325.49,97.1103723 362.7,97.48 362.7,74.89 L373.63,74.89 C385.056771,74.89 394.32,65.6267715 394.32,54.2 L394.32,20.69 C394.32,9.26322853 385.056771,-1.13686838e-13 373.63,-1.13686838e-13 L159.56,-1.13686838e-13" stroke="#312F42" stroke-linecap="round" stroke-linejoin="round" stroke-width="5"></path></g></g></g></svg>