<svg fill="none" height="58" viewBox="0 0 76 58" width="76" xmlns="http://www.w3.org/2000/svg"><g stroke="#093842" stroke-linejoin="round" stroke-miterlimit="10" stroke-width="2"><path d="m38 26.6484 14.25.0314"></path><path d="m14.25 32.0725c-1.9-1.0816-3.1666-3.1038-3.1666-5.4238 0-3.4643 2.8341-6.2703 6.3333-6.2703s6.3333 2.806 6.3333 6.2703c0 2.32-1.2825 4.3422-3.1666 5.4238"></path><path d="m64.9335 26.6487c0 3.4643-2.8342 6.2703-6.3333 6.2703-3.4992 0-6.3334-2.806-6.3334-6.2703s2.8342-6.2703 6.3334-6.2703c3.4833.0157 6.3333 2.806 6.3333 6.2703z"></path><path d="m26.9167 26.6484h4.75l15.8334 15.6757-14.25 14.1081-15.8334-15.6757v-14.1081h3.1667"></path><path d="m64.9167 26.6485h9.5s0-5.1887 0-7.8379c0-3.6681-5.415-7.054-20.5042-9.40538-6.1433-5.78432-11.6058-7.83784-17.5908-7.83784h-9.405c-6.1433 0-14.6933 5.87838-17.41666 7.83784-1.50417 0-3.42 0-4.76583 0-.87084 0-1.5675.70538-1.5675 1.56758v6.2703l-1.58334 3.1351v3.1351c0 1.7244 1.425 3.1352 3.16667 3.1352h6.33336"></path><path d="m49.2258 11.2862-3.1666 1.254h-30.2259l-1.5833-1.5675"></path></g></svg>