<svg xmlns="http://www.w3.org/2000/svg" viewBox="0 0 676 328" width="676" height="328" class="doodle-shape" preserveAspectRatio="xMidYMid meet" style="width: 100%; height: 100%; transform: translate3d(0px, 0px, 0px);"><defs><clipPath id="__lottie_element_46"><rect width="676" height="328" x="0" y="0"></rect></clipPath><mask id="__lottie_element_47" mask-type="alpha"><g transform="matrix(1,0,0,1,305,198)" opacity="1" style="display: block;"><g opacity="1" transform="matrix(1,0,0,1,0,0)"><path fill="rgb(255,23,233)" fill-opacity="1" d=" M156,-162 C173,-168 252.22300720214844,-192.3040008544922 313.5,-157 C435,-87 273,30 30,88.0009994506836 C-226.76100158691406,149.28599548339844 -359,86 -250,-11 C-135.1909942626953,-113.16899871826172 -38.5890007019043,-176.61300659179688 89.8239974975586,-178.97999572753906"></path><path stroke-linecap="round" stroke-linejoin="miter" fill-opacity="0" stroke-miterlimit="4" stroke="rgb(22,83,255)" stroke-opacity="1" stroke-width="39.898782494882035" d=" M156,-162 C173,-168 252.22300720214844,-192.3040008544922 313.5,-157 C435,-87 273,30 30,88.0009994506836 C-226.76100158691406,149.28599548339844 -359,86 -250,-11 C-135.1909942626953,-113.16899871826172 -38.5890007019043,-176.61300659179688 89.8239974975586,-178.97999572753906"></path></g></g></mask></defs><g clip-path="url(#__lottie_element_46)"><g mask="url(#__lottie_element_47)" style="display: block;"><g transform="matrix(1,0,0,1,7,7)" opacity="1"><g opacity="1" transform="matrix(1,0,0,1,331.0150146484375,156.89999389648438)"><path fill="rgb(255,23,233)" fill-opacity="1" d=" M330.9849853515625,-57 C326.06500244140625,-24.770000457763672 305.07501220703125,-3.380000114440918 280.8949890136719,15.239999771118164 C243.09500122070312,44.33100128173828 200.89500427246094,65.48999786376953 156.7550048828125,83.41000366210938 C111.90499877929688,101.63999938964844 65.58499908447266,115.0999984741211 18.985000610351562,127.63999938964844 C-22.663999557495117,138.94500732421875 -65.00800323486328,147.51300048828125 -107.7750015258789,153.29100036621094 C-140.77499389648438,157.66000366210938 -174.03500366210938,157.82000732421875 -207.21499633789062,155.08099365234375 C-238.7550048828125,152.47999572753906 -269.32501220703125,145.6999969482422 -297.9849853515625,131.7100067138672 C-312.7349853515625,124.5 -324.9849853515625,114.77999877929688 -330.9849853515625,98.83999633789062 C-330.9849853515625,98.83999633789062 -330.9849853515625,86.83999633789062 -330.9849853515625,86.83999633789062 C-327.0950012207031,63.84000015258789 -316.0450134277344,44.54100036621094 -300.7349853515625,27.34000015258789 C-285.77099609375,10.706000328063965 -269.7080078125,-4.906000137329102 -252.65499877929688,-19.389999389648438 C-225.27499389648438,-42.900001525878906 -197.11500549316406,-65.4000015258789 -166.61500549316406,-84.80000305175781 C-143.08900451660156,-99.85800170898438 -118.33499908447266,-112.90399932861328 -92.61499786376953,-123.80000305175781 C-66.45500183105469,-134.8000030517578 -39.73500061035156,-144.00999450683594 -11.774999618530273,-149.52999877929688 C3.4049999713897705,-152.52999877929688 18.635000228881836,-155.02999877929688 33.98500061035156,-156.9199981689453 C33.98500061035156,-156.9199981689453 53.98500061035156,-156.9199981689453 53.98500061035156,-156.9199981689453 C56.44499969482422,-155.38999938964844 58.244998931884766,-153.83999633789062 55.904998779296875,-150.6300048828125 C54.5099983215332,-148.61900329589844 53.457000732421875,-146.39300537109375 52.78499984741211,-144.0399932861328 C51.19499969482422,-138.6699981689453 47.39500045776367,-136.9199981689453 42.255001068115234,-136.6999969482422 C-3.744999885559082,-134.6999969482422 -46.8849983215332,-121.62000274658203 -88.84500122070312,-103.36000061035156 C-135.22500610351562,-83.16999816894531 -176.36500549316406,-54.900001525878906 -215.4149932861328,-23.420000076293945 C-230.72500610351562,-11.0600004196167 -245.625,1.9299999475479126 -259.7749938964844,15.581000328063965 C-274.3949890136719,29.700000762939453 -288.3450012207031,44.58100128173828 -299.2850036621094,61.93000030517578 C-303.4159851074219,68.51300048828125 -306.3290100097656,75.78600311279297 -307.885009765625,83.4000015258789 C-310.114990234375,94.0999984741211 -306.135009765625,101.81999969482422 -297.0150146484375,107.51000213623047 C-281.7650146484375,117.01000213623047 -265.0150146484375,122.30999755859375 -247.71499633789062,126.58100128173828 C-227.53500366210938,131.64199829101562 -206.83799743652344,134.36000061035156 -186.03500366210938,134.67999267578125 C-168.34500122070312,134.9199981689453 -150.55499267578125,135.1699981689453 -132.94500732421875,133.75 C-85.6050033569336,129.92999267578125 -39.39500045776367,119.48999786376953 6.534999847412109,107.83100128173828 C58.32500076293945,94.66999816894531 109.31500244140625,79.05000305175781 158.6649932861328,58.31999969482422 C195.51499938964844,42.84000015258789 231.03500366210938,24.950000762939453 263.3349914550781,1.2000000476837158 C278.7049865722656,-10.100000381469727 293.0950012207031,-22.350000381469727 302.9949951171875,-39.22999954223633 C316.9849853515625,-63 311.9849853515625,-89.44999694824219 290.4949951171875,-106.98999786376953 C270.4949951171875,-123.30999755859375 246.98500061035156,-129.05999755859375 222.15499877929688,-131.32000732421875 C200.64500427246094,-133.32000732421875 179.3350067138672,-131.32000732421875 158.15499877929688,-127.63999938964844 C151.15499877929688,-126.41999816894531 143.96499633789062,-128.0800018310547 136.94500732421875,-126.47000122070312 C134.875,-125.98999786376953 133.43499755859375,-127.0199966430664 133.53500366210938,-129.33999633789062 C133.6649932861328,-132.6699981689453 133.48500061035156,-136.27000427246094 137.72500610351562,-137.44000244140625 C151.55499267578125,-141.25 164.6750030517578,-147.44000244140625 179.1750030517578,-149.08999633789062 C208.80499267578125,-152.3699951171875 237.9949951171875,-151.00999450683594 266.3949890136719,-141.16000366210938 C291.69500732421875,-132.38999938964844 310.9549865722656,-116.16000366210938 324.5249938964844,-93.16000366210938 C328.42498779296875,-86.54000091552734 329.42498779296875,-79.0199966430664 331.0350036621094,-71.69000244140625 C331.0350036621094,-71.69000244140625 330.9849853515625,-57 330.9849853515625,-57z"></path></g></g></g></g></svg>