<svg xmlns="http://www.w3.org/2000/svg" viewBox="0 0 731 544" width="731" height="544" class="doodle-shape" preserveAspectRatio="xMidYMid meet" style="width: 100%; height: 100%; transform: translate3d(0px, 0px, 0px);"><defs><clipPath id="__lottie_element_26"><rect width="731" height="544" x="0" y="0"></rect></clipPath></defs><g clip-path="url(#__lottie_element_26)"><g transform="matrix(0.9999589920043945,-0.009058134630322456,0.009058134630322456,0.9999589920043945,11.753387451171875,20.24151611328125)" opacity="1" style="display: block;"><g opacity="1" transform="matrix(1,0,0,1,384.6340026855469,463.3500061035156)"><path fill="rgb(255,23,233)" fill-opacity="1" d=" M-13.694000244140625,50.650001525878906 C-16.40399932861328,47.790000915527344 -20.694000244140625,50.09000015258789 -23.763999938964844,47.15999984741211 C-26.125,44.869998931884766 -27.134000778198242,42.90999984741211 -26.3439998626709,39.810001373291016 C-21.948999404907227,22.93400001525879 -16.33099937438965,6.400000095367432 -9.53499984741211,-9.65999984741211 C-5.245999813079834,-20.466999053955078 -0.39899998903274536,-31.04400062561035 4.986000061035156,-41.349998474121094 C7.045000076293945,-45.13999938964844 10.72599983215332,-48.52000045776367 13.355999946594238,-49.209999084472656 C16.53499984741211,-50.04999923706055 21.356000900268555,-50.599998474121094 25.06599998474121,-48.65999984741211 C26.614999771118164,-47.75199890136719 27.134000778198242,-45.762001037597656 26.226999282836914,-44.2130012512207 C26.226999282836914,-44.21200180053711 26.22599983215332,-44.21099853515625 26.22599983215332,-44.209999084472656 C22.5049991607666,-37.9900016784668 21.986000061035156,-30.65999984741211 18.93600082397461,-24.15999984741211 C12.085000038146973,-9.609999656677246 7.605999946594238,5.909999847412109 0.6159999966621399,20.440000534057617 C-2.7339999675750732,27.440000534057617 -4.734000205993652,35.040000915527344 -7.074999809265137,42.439998626708984 C-7.880000114440918,45.500999450683594 -9.472000122070312,48.29600143432617 -11.694000244140625,50.54999923706055 C-11.694000244140625,50.54999923706055 -13.694000244140625,50.650001525878906 -13.694000244140625,50.650001525878906z"></path></g></g><g transform="matrix(0.9997481107711792,-0.022443050518631935,0.022443050518631935,0.9997481107711792,8.372039794921875,22.522857666015625)" opacity="1" style="display: block;"><g opacity="1" transform="matrix(1,0,0,1,236.47999572753906,426.5799865722656)"><path fill="rgb(255,23,233)" fill-opacity="1" d=" M22.399999618530273,-46.15999984741211 C26.59000015258789,-43.959999084472656 31.040000915527344,-44.70000076293945 35.619998931884766,-46.15999984741211 C37.41999816894531,-46.75 39.22999954223633,-45.650001525878906 40.380001068115234,-44.06999969482422 C41.529998779296875,-42.4900016784668 40.61000061035156,-40.86000061035156 39.77000045776367,-39.43000030517578 C33.099998474121094,-28.1299991607666 24.31999969482422,-18.43000030517578 16.149999618530273,-8.239999771118164 C11.576000213623047,-2.562999963760376 7.357999801635742,3.3919999599456787 3.5199999809265137,9.59000015258789 C0.3140000104904175,14.777000427246094 -3.5179998874664307,19.548999786376953 -7.889999866485596,23.799999237060547 C-12.079999923706055,27.920000076293945 -13.949999809265137,33.56999969482422 -17.479999542236328,38.189998626708984 C-22.68000030517578,45 -31.690000534057617,46.75 -37.619998931884766,40.7400016784668 C-40.36000061035156,37.959999084472656 -41.529998779296875,34.29999923706055 -39.33000183105469,30.219999313354492 C-35.209999084472656,22.56999969482422 -29.149999618530273,16.309999465942383 -24.450000762939453,9.0600004196167 C-13.302000045776367,-8.25 -0.9020000100135803,-24.72100067138672 12.649999618530273,-40.220001220703125 C15.1899995803833,-43.119998931884766 17.889999389648438,-45.79999923706055 22.399999618530273,-46.15999984741211z"></path></g></g><g transform="matrix(0.9997574090957642,0.02202427387237549,-0.02202427387237549,0.9997574090957642,23.062591552734375,13.401031494140625)" opacity="1" style="display: block;"><g opacity="1" transform="matrix(1,0,0,1,59.709999084472656,273.1789855957031)"><path fill="rgb(255,23,233)" fill-opacity="1" d=" M54.5099983215332,-8.178999900817871 C55.95000076293945,-6.339000225067139 54.650001525878906,-4.729000091552734 54.5099983215332,-3.178999900817871 C54.31999969482422,-1.1790000200271606 54.5099983215332,-0.01899999938905239 56.040000915527344,1.5210000276565552 C59.709999084472656,5.10099983215332 58.91999816894531,8.520999908447266 53.900001525878906,10.111000061035156 C45.060001373291016,12.991000175476074 36.619998931884766,17.680999755859375 26.709999084472656,16.111000061035156 C20.170000076293945,15.111000061035156 13.600000381469727,14.241000175476074 6.989999771118164,13.630999565124512 C-2.575000047683716,12.881999969482422 -12.081999778747559,11.51200008392334 -21.469999313354492,9.531000137329102 C-29.280000686645508,7.781000137329102 -37.16999816894531,6.181000232696533 -44.81999969482422,3.811000108718872 C-50.15399932861328,2.2720000743865967 -54.80500030517578,-1.0360000133514404 -58.0099983215332,-5.568999767303467 C-60.79999923706055,-9.569000244140625 -60.189998626708984,-12.178999900817871 -55.880001068115234,-14.519000053405762 C-51.63600158691406,-16.93199920654297 -46.645999908447266,-17.680999755859375 -41.880001068115234,-16.618999481201172 C-18.25,-10.89900016784668 5.980000019073486,-9.678999900817871 29.969999313354492,-6.729000091552734 C35.540000915527344,-6.048999786376953 41.2599983215332,-6.959000110626221 46.83000183105469,-5.488999843597412 C49.869998931884766,-4.689000129699707 51.97999954223633,-7.328999996185303 54.5099983215332,-8.178999900817871z"></path></g></g><g transform="matrix(0.9999997019767761,-0.0008028513984754682,0.0008028513984754682,0.9999997019767761,14.531280517578125,16.6588134765625)" opacity="1" style="display: block;"><g opacity="1" transform="matrix(1,0,0,1,591.14501953125,435.69500732421875)"><path fill="rgb(255,23,233)" fill-opacity="1" d=" M-28.454999923706055,-44.85499954223633 C-27.17300033569336,-48.51499938964844 -25.694000244140625,-52.104000091552734 -24.024999618530273,-55.60499954223633 C-23.024999618530273,-57.60499954223633 -21.114999771118164,-57.1349983215332 -19.47599983215332,-55.474998474121094 C-13.574999809265137,-49.474998474121094 -9.244999885559082,-42.35499954223633 -5.216000080108643,-35.1150016784668 C4.644999980926514,-17.405000686645508 11.255000114440918,1.746000051498413 18.565000534057617,20.575000762939453 C21.70400047302246,28.684999465942383 24.334999084472656,36.99599838256836 27.823999404907227,44.974998474121094 C28.454999923706055,46.229000091552734 28.159000396728516,47.749000549316406 27.104999542236328,48.67499923706055 C23.225000381469727,51.775001525878906 19.323999404907227,54.94499969482422 14.585000038146973,56.67499923706055 C12.045000076293945,57.60499954223633 10.585000038146973,55.67499923706055 9.164999961853027,54.04499816894531 C5.396999835968018,49.58300018310547 2.4509999752044678,44.48699951171875 0.4650000035762787,38.99599838256836 C-6.534999847412109,19.145000457763672 -14.1850004196167,-0.4350000023841858 -20.684999465942383,-20.454999923706055 C-23.03499984741211,-27.704999923706055 -26.454999923706055,-34.60499954223633 -27.684999465942383,-42.23500061035156 C-27.88800048828125,-43.124000549316406 -28.143999099731445,-43.999000549316406 -28.454999923706055,-44.85499954223633z"></path></g></g><g transform="matrix(0.9999837875366211,-0.005689742509275675,0.005689742509275675,0.9999837875366211,12.85064697265625,17.47711181640625)" opacity="1" style="display: block;"><g opacity="1" transform="matrix(1,0,0,1,658.0650024414062,337.1099853515625)"><path fill="rgb(255,23,233)" fill-opacity="1" d=" M42.6150016784668,28.559999465942383 C41.75600051879883,30.690000534057617 41.01499938964844,33.70000076293945 39.44499969482422,36.18000030517578 C36.44499969482422,40.93000030517578 31.44499969482422,41.75 26.676000595092773,38.77000045776367 C18.676000595092773,33.70000076293945 12.305000305175781,26.6299991607666 5.304999828338623,20.350000381469727 C-2.5739998817443848,13.270000457763672 -10.255000114440918,5.980000019073486 -18.20400047302246,-1.0199999809265137 C-24.39900016784668,-6.275000095367432 -30.07200050354004,-12.116000175476074 -35.14500045776367,-18.459999084472656 C-35.654998779296875,-19.1200008392334 -36.564998626708984,-19.91900062561035 -36.46500015258789,-20.520000457763672 C-35.534000396728516,-25.780000686645508 -37.36399841308594,-29.739999771118164 -41.57400131225586,-32.900001525878906 C-42.6349983215332,-33.689998626708984 -42.57400131225586,-34.970001220703125 -40.98500061035156,-35.56999969482422 C-40.500999450683594,-35.698001861572266 -40.04899978637695,-35.922000885009766 -39.654998779296875,-36.22999954223633 C-34.14500045776367,-41.75 -34.654998779296875,-40.72999954223633 -27.725000381469727,-37.61000061035156 C-16.344999313354492,-32.470001220703125 -7.985000133514404,-23.889999389648438 0.7559999823570251,-15.668999671936035 C10.524999618530273,-6.46999979019165 20.934999465942383,2.0199999809265137 29.895000457763672,12.149999618530273 C33.28499984741211,16 38.125999450683594,18.639999389648438 40.89500045776367,23.309999465942383 C41.775001525878906,24.760000228881836 42.80500030517578,26.030000686645508 42.6150016784668,28.559999465942383z"></path></g></g><g transform="matrix(0.9999855756759644,-0.005375588312745094,0.005375588312745094,0.9999855756759644,14.13885498046875,16.537094116210938)" opacity="1" style="display: block;"><g opacity="1" transform="matrix(1,0,0,1,375.95001220703125,50.15999984741211)"><path fill="rgb(255,23,233)" fill-opacity="1" d=" M23.399999618530273,-39.93000030517578 C22.902000427246094,-37.95000076293945 22.270000457763672,-36.00600051879883 21.510000228881836,-34.11000061035156 C14.260000228881836,-17.969999313354492 9.350000381469727,-1.0499999523162842 4.510000228881836,15.890000343322754 C3.000999927520752,21.1200008392334 3.0810000896453857,26.780000686645508 0.1899999976158142,31.65999984741211 C-0.47999998927116394,32.790000915527344 -0.5789999961853027,34.41999816894531 -1.809999942779541,34.9900016784668 C-4.619999885559082,36.27000045776367 -6.008999824523926,37.599998474121094 -2.999000072479248,40.18000030517578 C-2.436000108718872,40.70100021362305 -2.4000000953674316,41.58000183105469 -2.9210000038146973,42.14400100708008 C-3,42.23099899291992 -3.0910000801086426,42.305999755859375 -3.190000057220459,42.369998931884766 C-5.919000148773193,44.52000045776367 -8.83899974822998,46.369998931884766 -11.548999786376953,48.61000061035156 C-13.458999633789062,50.15999984741211 -19.2189998626709,45.91999816894531 -20.048999786376953,42.88999938964844 C-22.489999771118164,33.88999938964844 -23.559999465942383,24.450000762939453 -20.589000701904297,15.890000343322754 C-17.06999969482422,5.769999980926514 -15.229999542236328,-4.849999904632568 -10.770000457763672,-14.720000267028809 C-7.03000020980835,-23.020000457763672 -4.849999904632568,-32 -1.1100000143051147,-40.36000061035156 C-0.46799999475479126,-42.04199981689453 0.3499999940395355,-43.6510009765625 1.3309999704360962,-45.15999984741211 C5.610000133514404,-51.060001373291016 5.570000171661377,-51.15999984741211 12.109999656677246,-48.34000015258789 C15.109999656677246,-47.04999923706055 18.110000610351562,-45.650001525878906 21.110000610351562,-44.220001220703125 C22.500999450683594,-43.56999969482422 23.559999465942383,-42.540000915527344 23.399999618530273,-39.93000030517578z"></path></g></g><g transform="matrix(0.9998884201049805,0.014939462766051292,-0.014939462766051292,0.9998884201049805,21.531005859375,13.039276123046875)" opacity="1" style="display: block;"><g opacity="1" transform="matrix(1,0,0,1,111.44999694824219,372.9700012207031)"><path fill="rgb(255,23,233)" fill-opacity="1" d=" M43.54999923706055,-5.889999866485596 C39.869998931884766,-8.890000343322754 37.25,-7.820000171661377 34.470001220703125,-4.639999866485596 C23.37299919128418,8.196999549865723 8.52400016784668,17.225000381469727 -7.980000019073486,21.170000076293945 C-15.369999885559082,23.020000457763672 -22.809999465942383,23.75 -30.229999542236328,24.959999084472656 C-32.5,25.329999923706055 -35.15999984741211,25.440000534057617 -37,24.040000915527344 C-39,22.5 -40.880001068115234,22.649999618530273 -43.060001373291016,22.899999618530273 C-45.709999084472656,23.200000762939453 -49.40999984741211,23.548999786376953 -50.349998474121094,21.239999771118164 C-51.290000915527344,18.93000030517578 -48.72999954223633,16.239999771118164 -46.77000045776367,14.140000343322754 C-41.54100036621094,8.71399974822998 -34.86800003051758,4.895999908447266 -27.540000915527344,3.140000104904175 C-9.829999923706055,-1.5 5.239999771118164,-11.149999618530273 20.389999389648438,-20.7810001373291 C22.365999221801758,-21.986000061035156 24.424999237060547,-23.051000595092773 26.549999237060547,-23.969999313354492 C29.809999465942383,-25.440000534057617 32.5,-25.410999298095703 35.220001220703125,-22.860000610351562 C37.70000076293945,-20.520000457763672 40.38999938964844,-19.969999313354492 42.9900016784668,-22.979999542236328 C44.099998474121094,-24.270000457763672 45.5099983215332,-25.160999298095703 47.40999984741211,-24.43000030517578 C49.619998931884766,-23.56999969482422 48.290000915527344,-21.489999771118164 48.900001525878906,-20.280000686645508 C51.290000915527344,-15.529999732971191 49.68000030517578,-12.539999961853027 45.2599983215332,-10.649999618530273 C42.959999084472656,-9.710000038146973 44.72999954223633,-7.71999979019165 43.54999923706055,-5.889999866485596z"></path></g></g><g transform="matrix(0.9999108910560608,0.013351372443139553,-0.013351372443139553,0.9999108910560608,18.887786865234375,7.024444580078125)" opacity="1" style="display: block;"><g opacity="1" transform="matrix(1,0,0,1,119.66999816894531,145.1999969482422)"><path fill="rgb(255,23,233)" fill-opacity="1" d=" M21.139999389648438,37.689998626708984 C21.079999923706055,32.56999969482422 17.299999237060547,30.329999923706055 14.279999732971191,28.09000015258789 C4.929999828338623,21.149999618530273 -1.4500000476837158,11.479999542236328 -9.479999542236328,3.359999895095825 C-13.300000190734863,-0.5 -16.600000381469727,-4.840000152587891 -20.959999084472656,-8.210000038146973 C-29.149999618530273,-14.550000190734863 -32.29999923706055,-23.790000915527344 -34.77000045776367,-33.33000183105469 C-35.31999969482422,-35.459999084472656 -33.61000061035156,-35.72999954223633 -32.150001525878906,-36.150001525878906 C-26.790000915527344,-37.689998626708984 -21.719999313354492,-36.150001525878906 -17.290000915527344,-33.599998474121094 C-4.239999771118164,-26.010000228881836 6.300000190734863,-15.390000343322754 15.789999961853027,-3.8399999141693115 C20.790000915527344,2.25 26.399999618530273,8.15999984741211 28.790000915527344,16.030000686645508 C28.889999389648438,16.34000015258789 29.34000015258789,16.68000030517578 29.270000457763672,16.8799991607666 C27.700000762939453,21.40999984741211 29.010000228881836,24.34000015258789 33.27000045776367,26.8799991607666 C35.31999969482422,28.079999923706055 32.95000076293945,30.059999465942383 31.43000030517578,31.020000457763672 C28.110000610351562,33.099998474121094 24.329999923706055,34.4900016784668 21.139999389648438,37.689998626708984z"></path></g></g><g transform="matrix(0.9999991655349731,0.001274090027436614,-0.001274090027436614,0.9999991655349731,15.636627197265625,16.579193115234375)" opacity="1" style="display: block;"><g opacity="1" transform="matrix(1,0,0,1,638.655029296875,206.30499267578125)"><path fill="rgb(255,23,233)" fill-opacity="1" d=" M29.145000457763672,7.315000057220459 C20.95400047302246,8.52400016784668 12.706999778747559,9.317999839782715 4.434999942779541,9.694999694824219 C-3.6449999809265137,10.104999542236328 -11.4350004196167,12.625 -19.565000534057617,12.085000038146973 C-23.125,11.845000267028809 -26.774999618530273,13.024999618530273 -30.385000228881836,13.545000076293945 C-32.80500030517578,13.895000457763672 -35.24599838256836,13.664999961853027 -36.84600067138672,11.71500015258789 C-39.005001068115234,9.085000038146973 -41.10499954223633,7.715000152587891 -44.915000915527344,8.295000076293945 C-48.30500030517578,8.78499984741211 -45.974998474121094,4.965000152587891 -47.1150016784668,3.2950000762939453 C-48.665000915527344,0.9950000047683716 -46.2760009765625,-0.36500000953674316 -44.395999908447266,-0.9950000047683716 C-37.395999908447266,-3.3550000190734863 -30.326000213623047,-5.59499979019165 -23.145999908447266,-7.485000133514404 C-15.923999786376953,-9.41100025177002 -8.571000099182129,-10.805000305175781 -1.1460000276565552,-11.654999732971191 C6.584000110626221,-12.515000343322754 14.395000457763672,-13.854999542236328 22.30500030517578,-13.145000457763672 C27.55500030517578,-12.675000190734863 32.845001220703125,-13.895000457763672 38.1349983215332,-12.744999885559082 C46.345001220703125,-10.954999923706055 48.665000915527344,-7.224999904632568 46.48400115966797,1.1150000095367432 C45.48400115966797,4.715000152587891 44.194000244140625,7.454999923706055 39.48400115966797,7.224999904632568 C36.04399871826172,7.054999828338623 32.54499816894531,7.985000133514404 29.145000457763672,7.315000057220459z"></path></g></g><g transform="matrix(0.9999879598617554,-0.004904355388134718,0.004904355388134718,0.9999879598617554,14.60357666015625,17.1307373046875)" opacity="1" style="display: block;"><g opacity="1" transform="matrix(1,0,0,1,221.02499389648438,78.375)"><path fill="rgb(255,23,233)" fill-opacity="1" d=" M22.635000228881836,31.045000076293945 C22.825000762939453,34.70500183105469 20.954999923706055,37.82500076293945 20.05500030517578,41.154998779296875 C19.344999313354492,43.775001525878906 16.905000686645508,43.974998474121094 15.305000305175781,42.3849983215332 C10.454999923706055,37.55500030517578 4.795000076293945,34.005001068115234 1.4550000429153442,27.094999313354492 C-6.135000228881836,11.444999694824219 -10.914999961853027,-5.375 -19.104999542236328,-20.71500015258789 C-21.584999084472656,-25.375 -22.825000762939453,-30.375 -21.295000076293945,-35.595001220703125 C-20.295000076293945,-38.95500183105469 -18.885000228881836,-42.595001220703125 -15.045000076293945,-43.28499984741211 C-11.204999923706055,-43.974998474121094 -7.914999961853027,-41.915000915527344 -5.485000133514404,-38.95500183105469 C0.17499999701976776,-32.05500030517578 2.615000009536743,-23.514999389648438 6.275000095367432,-15.585000038146973 C11.835000038146973,-3.5850000381469727 15.835000038146973,9.095000267028809 20.895000457763672,21.325000762939453 C22.21500015258789,24.53499984741211 21.975000381469727,27.844999313354492 22.635000228881836,31.045000076293945z"></path></g></g><g transform="matrix(0.9999063611030579,0.013682954013347626,-0.013682954013347626,0.9999063611030579,18.52752685546875,9.247604370117188)" opacity="1" style="display: block;"><g opacity="1" transform="matrix(1,0,0,1,505.4800109863281,97.10800170898438)"><path fill="rgb(255,23,233)" fill-opacity="1" d=" M-10.140000343322754,23.16200065612793 C-12.74899959564209,19.722000122070312 -13.99899959564209,15.76200008392334 -19.31999969482422,16.86199951171875 C-21.499000549316406,17.312000274658203 -22.139999389648438,15.381999969482422 -21.18000030517578,13.071999549865723 C-17.350000381469727,3.871999979019165 -12.180000305175781,-4.368000030517578 -4.860000133514404,-11.227999687194824 C-1.3029999732971191,-14.46399974822998 2.503000020980835,-17.416000366210938 6.519999980926514,-20.058000564575195 C10.4399995803833,-22.829999923706055 15.586000442504883,-23.16200065612793 19.829999923706055,-20.917999267578125 C21.881000518798828,-19.777999877929688 22.139999389648438,-15.04800033569336 20.829999923706055,-11.668000221252441 C19.15999984741211,-7.48799991607666 15.680000305175781,-4.748000144958496 12.899999618530273,-1.4980000257492065 C8.390000343322754,3.7720000743865967 3.509999990463257,8.722000122070312 -1.340000033378601,13.692000389099121 C-4.309999942779541,16.691999435424805 -9.109999656677246,17.892000198364258 -10.140000343322754,23.16200065612793z"></path></g></g></g></svg>