<svg fill="none" height="58"  width="76" viewBox="0 0 68 65" xmlns="http://www.w3.org/2000/svg"> <path d="m39.454 46.673-15.5 9.8489-22.545-15.544" stroke-linecap="round" stroke-linejoin="round"></path> <path d="m43.681 14.13v2.8261"></path> <path d="m23.954 26.848v2.826"></path> <path d="m39.453 32.415-23.193-15.727 10.441-6.3163 24.025 15.12v22.609l-11.273 7.2914z" stroke-linecap="round" stroke-linejoin="round"></path> <path d="m46.0757 22.5662 8.0599-5.1152c-1.2259-.7772-1.4796-1.8793 0-2.812l-8.8631-5.62386c-1.4795.93261-3.2126.77717-4.4385 0l-8.1162 5.14346"></path> <path d="m22.2906 20.7856-8.8208 5.5816c1.4796.9326 1.24 2.0206.0141 2.7978l8.8631 5.6239c1.2258-.7772 2.9449-.9326 4.4244.0141l8.3558-5.2989"></path> <g stroke-linecap="round" stroke-linejoin="round"> <path d="m39.454 32.542-15.5 9.8489-22.545-14.13 16.669-10.344"></path> <path d="m28.265 11.347 15.415-9.9337 22.545 14.13-15.584 9.8913"></path> <path d="m39.454 39.636-15.5 9.8207-22.545-15.544"></path> <path d="m66.226 22.609-15.5 9.8348"></path> <path d="m39.454 53.738-15.5 9.8489-22.545-15.543"></path> <path d="m66.226 36.739-15.5 9.8489"></path> <path d="m66.226 29.674-15.5 9.8489"></path> </g> </svg>