<svg fill="#0ad2a0" viewBox="0 0 20 20" xmlns="http://www.w3.org/2000/svg" class="sc-bdvvtL dYnyKd"><path  d="M8.026 13.148V6.852c0-.866.703-1.574 1.58-1.574h7.105V4.49c0-.866-.711-1.574-1.58-1.574H4.08c-.876 0-1.579.708-1.579 1.574v11.018c0 .866.703 1.574 1.579 1.574h11.053c.868 0 1.579-.708 1.579-1.574v-.787H9.605a1.576 1.576 0 01-1.579-1.574zm2.369-6.296a.791.791 0 00-.79.787v4.722c0 .433.356.787.79.787H17.5V6.852h-7.105zm2.368 4.329a1.181 1.181 0 110-2.361 1.18 1.18 0 110 2.36z"></path></svg>