<svg id="Layer_1" data-name="Layer 1" xmlns="http://www.w3.org/2000/svg" viewBox="0 0 250 250"><defs><style>.cls-1{fill:#ec608a;}.cls-2{fill:none;stroke:#312f43;stroke-linecap:round;stroke-linejoin:round;stroke-width:4.5px;}.cls-3{fill:#312f43;}</style></defs><circle class="cls-1" cx="125" cy="125" r="123.87"/><line class="cls-2" x1="79.59" y1="178.1" x2="67.99" y2="178.1"/><ellipse class="cls-2" cx="60.61" cy="178.79" rx="7.07" ry="7.05" transform="translate(-108.62 95.11) rotate(-44.96)"/><path class="cls-2" d="M110.8,168.51l0,7a2.61,2.61,0,0,0,2.61,2.61h29.28a2.6,2.6,0,0,0,2.6-2.62v-2.17l0-9.36a2.6,2.6,0,0,0-2.6-2.61H113.43"/><path class="cls-2" d="M53.58,178.1H48.49a3.8,3.8,0,0,1-3.81-3.82l0-9.12a3.83,3.83,0,0,1,3.83-3.82h6.82a6.36,6.36,0,0,0,5.79-3.73l4.1-9a6.94,6.94,0,0,1,6.31-4.06H86.36a6.91,6.91,0,0,1,5.7,3l7.53,11a6.33,6.33,0,0,0,5.22,2.75h27.3"/><line class="cls-2" x1="115" y1="178.1" x2="101.06" y2="178.1"/><path class="cls-2" d="M119.74,150.12l5.79,8.47a6.33,6.33,0,0,0,5.22,2.75"/><path class="cls-2" d="M86.36,144.58H112.3a6.91,6.91,0,0,1,5.7,3l1.74,2.54"/><ellipse class="cls-2" cx="94.02" cy="178.79" rx="7.07" ry="7.05" transform="translate(-98.85 118.72) rotate(-44.96)"/><path class="cls-2" d="M116.39,178.79a7.06,7.06,0,1,0,14.12,0"/><line class="cls-2" x1="105.24" y1="161.34" x2="67.66" y2="161.34"/><ellipse class="cls-3" cx="138.74" cy="167.83" rx="2.86" ry="2.85" transform="translate(-78.02 147.12) rotate(-44.96)"/><ellipse class="cls-3" cx="117.88" cy="167.83" rx="2.86" ry="2.85" transform="translate(-84.12 132.37) rotate(-44.96)"/><line class="cls-2" x1="154.65" y1="185.85" x2="44.55" y2="185.85"/><polyline class="cls-2" points="79.63 135.18 79.63 121.25 129.63 102.23 195.47 134.91 195.47 161.25"/><line class="cls-2" x1="129.14" y1="112.88" x2="129.14" y2="150.28"/><line class="cls-2" x1="213.77" y1="161.25" x2="151.91" y2="161.25"/><line class="cls-2" x1="161.57" y1="118.09" x2="161.57" y2="81.26"/><path class="cls-2" d="M168.36,81.88c7.72,6.76,15.45-6.76,23.17,0V98c-7.72-6.76-15.45,6.76-23.17,0"/><circle class="cls-2" cx="83.66" cy="73.79" r="13.8"/><line class="cls-2" x1="83.66" y1="44.86" x2="83.66" y2="51.6"/><line class="cls-2" x1="83.66" y1="95.97" x2="83.66" y2="102.71"/><line class="cls-2" x1="66.66" y1="50.38" x2="70.62" y2="55.84"/><line class="cls-2" x1="96.7" y1="91.73" x2="100.66" y2="97.19"/><line class="cls-2" x1="56.15" y1="64.85" x2="62.56" y2="66.93"/><line class="cls-2" x1="104.76" y1="80.64" x2="111.17" y2="82.72"/><line class="cls-2" x1="56.15" y1="82.72" x2="62.56" y2="80.64"/><line class="cls-2" x1="104.76" y1="66.93" x2="111.17" y2="64.85"/><line class="cls-2" x1="66.66" y1="97.19" x2="70.62" y2="91.73"/><line class="cls-2" x1="96.7" y1="55.84" x2="100.66" y2="50.38"/></svg>