<svg id="Layer_1" data-name="Layer 1" xmlns="http://www.w3.org/2000/svg" viewBox="0 0 250 250"><defs><style>.cls-1{fill:#0ad19f;}.cls-2{fill:none;stroke:#312f43;stroke-linecap:round;stroke-linejoin:round;stroke-width:4.5px;}</style></defs><circle class="cls-1" cx="125" cy="125" r="123.87"/><path class="cls-2" d="M74.71,169.29l-5.09-1a10,10,0,0,1-8-11.69h0a10,10,0,0,1,11.69-7.95l7.36,1.4"/><path class="cls-2" d="M96.31,153.05l6.15,1.17a10,10,0,0,1,8,11.7h0a10,10,0,0,1-11.7,8l-2.84-.54"/><path class="cls-2" d="M94.91,173.14c6,1.15,10,6.48,9,11.9h0c-1,5.43-6.75,8.9-12.76,7.75L72,189.14C66,188,62,182.67,63,177.25h0c1-5.43,6.74-8.9,12.75-7.75"/><line class="cls-2" x1="95.7" y1="132.57" x2="100.43" y2="133.48"/><path class="cls-2" d="M79.44,149.83l-9-1.71a10.2,10.2,0,0,1-8.32-11.77h0a10.21,10.21,0,0,1,12.07-7.88l7.48,1.43"/><path class="cls-2" d="M89.05,110.83l18.7,3.57a10.05,10.05,0,0,1,8,11.76h0a10.06,10.06,0,0,1-11.76,8l-10.68-2"/><path class="cls-2" d="M109,135.11a10,10,0,0,1-3.74,19.65"/><path class="cls-2" d="M169.74,182.25a39.42,39.42,0,0,0,9.74-19.4h0a39.65,39.65,0,0,0-25.34-44.66h0a14.17,14.17,0,0,1-9.06-10.72l-6.59-33A11.56,11.56,0,0,0,125,65.25h0a11.56,11.56,0,0,0-9.27,13.46l6.42,32.06-35-6.67a13.18,13.18,0,0,0-15.42,10.49h0A13.18,13.18,0,0,0,82.24,130"/><path class="cls-2" d="M101.52,190.42l30.22,5.75c7,1.34,9.69-.06,16-2.2"/><line class="cls-2" x1="93.89" y1="172.95" x2="76.04" y2="169.55"/><line class="cls-2" x1="96.31" y1="153.05" x2="79.44" y2="149.83"/><line class="cls-2" x1="109.01" y1="135.11" x2="100.43" y2="133.48"/><line class="cls-2" x1="105.27" y1="154.76" x2="98.02" y2="153.38"/><line class="cls-2" x1="126" y1="48.54" x2="125.39" y2="30.38"/><line class="cls-2" x1="140.73" y1="53.88" x2="149.49" y2="37.84"/><line class="cls-2" x1="101.84" y1="39.46" x2="111.68" y2="54.87"/></svg>