<svg viewBox="0 0 285 178" xmlns="http://www.w3.org/2000/svg" xmlns:xlink="http://www.w3.org/1999/xlink" class="styles__SVG-sc-1g923b5-0 liJZbW"><defs><path d="M0 0h285v178H0z" id="a"></path><path d="M1.869 4.922L0 24.083l71.477-6.543L56.839 0" id="c"></path></defs><g fill="none" fill-rule="evenodd"><mask fill="#fff" id="b"><use xlink:href="#a"></use></mask><path d="M250.91 113.986l2.182-3.332-1.625-3.85-2.017-.158s-5.988 2.09-13.653 4.326l-29.382 4.178s-13.784 55.029-12.667 69.052c.103 1.284 3.962 2.235 5.587 2.845 7.177 2.692 38.406 5.617 44.094 5.617 5.687 0 22.546 1.135 23.254-5.82 2.835-27.877-10.325-60.705-15.772-72.858" fill="#4ACC9A" mask="url(#b)"></path><path d="M198.654 149.232c-2.18 10.59-4.13 21.417-4.758 28.825l73.152-1.555c-.255-10.399-2.234-21.033-4.804-30.695l-63.59 3.425z" fill="#57DCAD" mask="url(#b)"></path><path d="M111.01 96.198l76.26 51.662-5.202 7.684-76.26-51.662z" fill="#33374B" mask="url(#b)"></path><path d="M152.837 116.569l96.222 65.185-12.595 18.604-96.222-65.186z" fill="#585E7D" mask="url(#b)"></path><path d="M261.592 113.622c8.756 5.08 18.973 13.445 22.107 25.86 3.984 15.783-6.717 30.064-29.357 47.56l.097-.075c-6.573 8.56-17.861 14.118-17.42 9.83.188-1.814 2.337-4.465 5.019-7.122a1.436 1.436 0 01-.797-.674l-.259-.487c-.414-.777-.01-1.8.902-2.285l5.896-3.652c.825-.579 2.774-1.798 3.995-1.345 16.602-15.406 22.77-27.79 19.892-39.19-2.275-9.012-10.36-15.313-17.242-19.184zm-133.236 7.007c1.465-.24 3.723.668 6.232 2.117.036-.037.075-.07.117-.103l.438-.336c.698-.536 1.773-.307 2.402.512l4.154 4.735.434.396a141.343 141.343 0 017.596 6.334c11.235 8.447 20.54 11 30.068 9.01 4.652-.972 8.714-3.18 12.196-5.957 3.814 1.198 8.385 3.904 9.195 7.496-5.048 4.33-11.23 7.92-18.645 9.48-3.205.675-6.47.94-9.787.796-13.757-.597-18.652-5.665-34.007-20.204-8.342-5.52-14.227-13.647-10.393-14.276zM238.705 57.85l3.227 17.526a4.875 4.875 0 016.187 4.283 4.873 4.873 0 01-4.134 5.225l5.718 26.467-42.923 4.811.026-26.413a4.803 4.803 0 01-4.443-4.387 4.807 4.807 0 014.387-5.192l.066-.002-.128-16.691 32.017-5.627z" fill="#F8E0BB" mask="url(#b)"></path><g mask="url(#b)"><path d="M152.429 116.364l94.732 64.18-20.006 14.237-87.703-59.263z" fill="#585E7D"></path><path d="M134.82 69.796c0 36.508-29.609 66.105-66.133 66.105-36.524 0-66.133-29.597-66.133-66.105 0-36.51 29.609-66.106 66.133-66.106 36.524 0 66.133 29.596 66.133 66.106" fill="#FFF"></path><path d="M29.993 124.742c31.217 21.132 73.66 12.967 94.802-18.237 21.14-31.203 12.972-73.63-18.245-94.761C75.333-9.388 32.889-1.223 11.749 29.98c-21.14 31.204-12.973 73.63 18.244 94.762m3.849-5.681C5.81 100.084-1.552 61.849 17.432 33.828 36.417 5.808 74.668-1.55 102.701 17.425c28.033 18.977 35.394 57.212 16.41 85.233-18.985 28.02-57.236 35.379-85.27 16.403" fill="#33374B"></path><path d="M115.777 72.373l-1.643-11.893-70.101 1.924s-12.37 1.891-23.425 7.342c-.883.76-.99 1.44-1.129 2.292-.045.28-.08.563-.117.846-.303 1.376-.969 4.416.281 5.76 1.832 1.97.647.767 2.906 3.4.071.082.191.08.288.116l4.906-.012a8.346 8.346 0 018.337-8.778 8.347 8.347 0 018.338 8.734l46.665-.124c-.004-.105-.008-.208-.008-.314 0-4.602 3.733-8.333 8.337-8.333 4.605 0 8.338 3.731 8.338 8.333 0 .09-.004.18-.007.27l.528-.002 7.472-2.392 1.478-4.43-1.444-2.739z" fill="#4F5467"></path><path d="M27.732 81.715a8.347 8.347 0 015.4-7.807c-8.475.326-14.078.705-14.153 1.138-.56 3.22 1.31 4.365 3.57 6.997.071.083.192.081.289.118l4.905-.013a8.907 8.907 0 01-.01-.433m88.044-9.342s-6.193.056-15.442.168c.028.01.054.024.082.035l-6.178.049.015-.007-1.23.016-5.471.043.002.032c-15.76.224-34.996.56-49.08 1.012a8.347 8.347 0 015.943 8.383l44.787-.12-.016-.087h1.891c-.002-.077-.005-.153-.005-.23a8.336 8.336 0 018.337-8.334c4.605 0 8.338 3.731 8.338 8.333 0 .09-.004.18-.007.27l.528-.002 7.472-2.392 1.478-4.43-1.444-2.739zm-7.612-20.006c-4.939-5.051-5.068-6.395-9.251-6.413-3.16-.013-3.884-.284-7.047-.271-4.329.016-8.664.006-12.99.167-4.297.16-8.607.326-12.89.724-3.075.286-5.76.775-6.002.855-5.01 1.67-19.272 18.103-19.272 18.103l33.592-.41 39.848-4.642s-1.232-3.25-5.988-8.113" fill="#33374B"></path><path d="M103.175 55.352c-6.32-8.142-7.534-8.818-8.92-8.867-3.382-.193-4.76-.012-8.145-.012-4.192-.001-21.17.578-25.045 2.144-4.872 1.97-7.444 6.07-10.712 10.331-.488.636-1.296 1.361-1.636 2.124 0 0-.829 1.861.825 2.023 0 0 37.014-2.833 49.193-4.1 1.896-.197 3.668-2.094 4.317-2.933.105-.22.152-.463.123-.71" fill="#33374B"></path><path d="M46.543 61.126c3.668-4.777 9.773-10.084 11.042-11.164.771-.657.725-1.227.57-1.573-4.082 2.687-10.714 9.689-14.516 13.866 1.236.15 2.904-1.129 2.904-1.129" fill="#00384B"></path><path d="M62.847 48.67s-3.172.705-5.357 2.818c-2.184 2.114-7.777 10.025-7.777 10.025s-1.334 1.361.79 1.022c.899-.144 9.412-.912 18.942-1.75a60.337 60.337 0 012.305-13.059c-3.358.249-6.493.56-8.903.944m10.829-1.078c-.4 3.238-.831 7.952-.774 12.888 7.475-.655 15.084-1.313 19.784-1.718-2.007-5.307-3.758-9.23-4.992-11.796-3.951.107-9.115.304-14.018.626m28.496 7.454c-.282-.74-5.78-8.102-7.928-8.172-.573-.019-2.409-.005-4.97.053a285.89 285.89 0 015.94 11.617l2.138-.183s1.296-.04 2.283-.673c.987-.635 2.819-1.903 2.537-2.642" fill="#FFF"></path><path d="M27.834 78.348c.04-.513.084-1.025.116-1.537h-9.426a.836.836 0 00-.294.074.64.64 0 00-.29.326l.04 2.053s1.948 2.922 3.29 3.352c1.34.43 2.23.306 2.23.306l3.89.017c.005-.236.392-3.91.444-4.591" fill="#1F1E1E"></path><path d="M25.713 76.81h-7.19a.876.876 0 00-.293.075.64.64 0 00-.29.326l.035 1.814s7.706-1.702 7.738-2.214" fill="#212221"></path><path d="M47.753 61.267l-1.864 1.24s-.85.598-.23 1.241c0 0 .29.338 1.072.355.783.017 2.407-.355 2.407-.355l-1.385-2.481z" fill="#252839"></path><path d="M51.017 60.772c-.379-1.053-2.303-.906-2.306-.906-.824.061-1.447.894-1.914 1.78-.539 1.02-.138 3.107.875 2.914 1.16-.224.717-.059 2.597-.61.49-.142 1.208-1.894.748-3.178" fill="#4F5467"></path><path d="M51.017 60.772a.983.983 0 00-.14-.26c.02.494-.089.986-.431 1.37-.428.479-1.05.729-1.657.896-.365.102-.723.23-1.094.303-.297.06-.7.139-.975-.031a.816.816 0 01-.16-.13c.04.898.441 1.768 1.112 1.64 1.16-.224.717-.059 2.597-.61.49-.142 1.208-1.894.748-3.178" fill="#33374B"></path><path d="M102.92 47.011c-1.164.03-2.01.326-1.523 1.25l8.95 10.26s1.616 2.297 3.212.758c-.76-1.364-2.36-3.809-5.394-6.912-2.707-2.768-3.968-4.423-5.245-5.356" fill="#00384B"></path><path d="M24.025 79.003c.952-.075 1.67.597 1.602 1.502-.068.905-.896 1.7-1.847 1.775-.952.075-3.111-.484-3.044-1.389.068-.904 2.337-1.813 3.289-1.888" fill="#212221"></path><path d="M23.831 79.203c.899-.07 1.575.564 1.511 1.417-.064.853-.844 1.603-1.742 1.674-.898.071-2.934-.456-2.87-1.31.063-.854 2.203-1.71 3.101-1.78" fill="#000"></path><path d="M48.034 59.302c3.641-4.225 8.442-8.396 9.55-9.34.772-.658.726-1.227.572-1.573-3.516 2.315-8.923 7.828-12.785 11.982.882-.37 1.77-.727 2.663-1.07m14.816-4.419a154.405 154.405 0 017.533-1.482 59.16 59.16 0 011.367-5.673c-3.358.248-6.493.559-8.903.944 0 0-3.172.704-5.357 2.817-1.163 1.126-3.294 3.896-5.031 6.24a109.45 109.45 0 0110.391-2.846m26.789-3.651a123.695 123.695 0 00-1.945-4.265c-3.95.107-9.115.304-14.018.626a109.152 109.152 0 00-.527 5.359c5.464-.838 10.976-1.4 16.49-1.72m6.387-.265c1.019-.025 2.038-.042 3.059-.051-1.719-2.014-3.73-4.005-4.841-4.041-.573-.019-2.41-.005-4.97.053a325.47 325.47 0 012.226 4.206c1.509-.073 3.018-.129 4.526-.167" fill="#FFF"></path><path d="M103.728 50.933c1.048.018 2.096.045 3.143.082-1.854-1.972-2.898-3.234-3.952-4.003-1.163.028-2.01.325-1.522 1.249l2.331 2.672z" fill="#4DA88A"></path><path d="M113.733 73.556l1.799-.105s.492-.035.668.281l.6 1.216s.053.193-.247.193h-1.78s-.281.018-.493-.14c-.21-.16-.81-1.233-.81-1.233s-.1-.221.263-.212m-1.283-11.431c-.404.248-.794.626-1.005 1.085-.217.473-.241 1.007-.194 1.525.04.44.115.876.18 1.312.065.442.134.885.218 1.323.077.399.157.801.284 1.185.084.252.183.507.38.678.248.216.56.342.849.475.373.171.75.33 1.131.477.348.135 1.216.604 1.216.386l-1.157-9.26-.243-.228-.079.041a6.976 6.976 0 00-.54.316c-.35.224-.687.469-1.04.685" fill="#6EC4A3"></path><path d="M43.162 81.715a7.08 7.08 0 01-7.082 7.08 7.08 7.08 0 110-14.159 7.081 7.081 0 017.082 7.08" fill="#6EC3A3"></path><path d="M39.558 81.715a3.478 3.478 0 11-6.955-.001 3.478 3.478 0 016.955.001" fill="#278464"></path><path d="M106.639 81.715c0 3.91-3.171 7.08-7.082 7.08s-7.082-3.17-7.082-7.08 3.17-7.079 7.082-7.079a7.081 7.081 0 017.082 7.08" fill="#6EC3A3"></path><path d="M103.035 81.715a3.478 3.478 0 11-6.955-.001 3.478 3.478 0 016.955.001" fill="#278464"></path><path d="M26.05 68.354c-1.044-.055-1.97-.08-2.936.371-.912.427-2.257.95-2.723 1.435a3.36 3.36 0 00-.41.697 9.4 9.4 0 00-.368 2.31c.03.24.084.448.161.606.282.576 3.361.121 5.428-1.566.659-.385 1.9-3.785.849-3.853" fill="#6EC4A3"></path><path d="M66.839 63.03l1.912.02s.377.017.222.415c-.154.4-.198.471-.198.471s-.046.208-.416.274c-.37.066-2.587.161-2.587.161s-.313.037-.791-.271c-.479-.308-.45-.825-.285-.946 0 0-.002-.055.314-.113.317-.057 1.829-.01 1.829-.01" fill="#F6DDBA"></path></g><path d="M201.546 144.611s-10.278-4.673-11.213-9.814c0 0 13.476-18.265 16.081-19.647 2.606-1.382 0 0 0 0l4.008 7.03-8.876 22.431z" fill="#4ACC9A" mask="url(#b)"></path><g mask="url(#b)"><g transform="translate(194.07 113.986)"><mask fill="#fff" id="d"><use xlink:href="#c"></use></mask><path d="M56.84 0l2.181-3.331-1.625-3.85-2.017-.158S49.39-5.25 41.726-3.014L12.344 1.164S-1.44 56.194-.323 70.216c.103 1.285 3.962 2.236 5.587 2.845 7.177 2.692 38.406 5.618 44.094 5.618 5.688 0 22.547 1.134 23.254-5.821C75.447 44.982 62.287 12.154 56.84 0" fill="#57DCAD" mask="url(#d)"></path></g></g><path d="M217.833 76.86a2.188 2.188 0 11-4.362.366 2.19 2.19 0 114.362-.365m17.831-2.185a2.189 2.189 0 11-4.363.365 2.189 2.189 0 014.363-.364" fill="#164375" mask="url(#b)"></path><path d="M211.804 75.17s2.833-2.14 4.823-2.433l-1.197-1.166s-2.924 2.019-3.7 2.717c-.776.699.074.881.074.881" fill="#DFBD2B" mask="url(#b)"></path><path d="M241.546 73.562s2.325-5.717.313-10.828c0 0 14.93-17.094-2.81-27.222 0 0 .7 2.054-.477 6.905l-8.826-4.54s3.933 2.838 4.94 8.562c0 0-4.369-1.746-10.266-2.835-5.898-1.089-24.112 2.024-25.284 13.21-1.174 11.187 1.48 9.102 1.48 9.102l-11.656-4.552s8.144 9.794 12.192 10.944c4.101 1.165 5.586 6.922 5.586 6.922s4.136-9.919 3.609-16.21c0 0 13.228 3.83 24.218.854l3.277 1.309s3.246 3.573 3.704 8.38" fill="#191B2E" mask="url(#b)"></path><path d="M229.292 85.132c-2.057 3.006-6.131 3.806-9.082 1.785a1.054 1.054 0 111.19-1.739c1.992 1.365 4.753.81 6.153-1.237a1.054 1.054 0 111.739 1.191" fill="#164375" mask="url(#b)"></path><path d="M236.491 72.205s-3.149-1.636-5.16-1.594l.986-1.35s3.219 1.504 4.1 2.064c.882.56.074.88.074.88" fill="#DFBD2B" mask="url(#b)"></path><path d="M251.467 106.805l30.176 14.298s-15.758 15.093-17.496 19.303c0 0-13.803-10.395-18.064-15.579-8.466-10.298-1.217-17.55 5.384-18.022" fill="#4ACC9A" mask="url(#b)"></path><path d="M206.415 115.15s36.801-4.187 42.253-7.922l-1.494 5.977-40.85 3.51.09-1.565z" fill="#4ACC9A" mask="url(#b)"></path><path d="M221.219 118.596l2.002-.425s12.205 29.807 27.923 38.918l1.723 13.64-15.967-1.97s-6.542-10.615-15.681-50.163" fill="#636E89" mask="url(#b)"></path></g></svg>