<svg height="242px" version="1.1" viewBox="0 0 312 292" width="312px" xmlns="http://www.w3.org/2000/svg" class="styles__PathLeftTopSVG-sc-15ydgvj-0 bLaqkC"><title>Path left top</title><g fill="none" fill-rule="evenodd" id="Final-Design---pages-&amp;-components" stroke="none" stroke-linecap="round" stroke-width="1"><g id="3.-How-It-Works-Desktop-V1" stroke="#0AD2A0" stroke-width="20" transform="translate(0.000000, -1.000000)"><g id="Hero" transform="translate(0.000000, 1.000000)"><path d="M-199.477783,-176.756741 C-170.803721,-117.367276 -147.716954,-5.86290675 -259.496945,72.578267 C-394.346978,167.208754 -472.265295,146.727001 -471.772761,70.2462934 C-457.956803,-45.7663878 -251.017407,47.5516244 -163.680618,178.183774 C-138.288709,216.163182 -133.395046,273.781894 -133.431655,309.912819 C-133.59418,470.317937 -295.530492,550.327769 -243.862926,700.33457 C-192.19536,850.341372 -12.1149416,855.933897 3.4893561,968.157688 C13.8922212,1042.97355 -61.3067063,1115.19574 -222.107426,1184.82425 L-212.434075,1282.82082 L-459.45231,1812.55314" id="Path-2-Copy-2" transform="translate(-233.667619, 817.898199) scale(1, -1) rotate(155.000000) translate(233.667619, -817.898199) "></path></g></g></g></svg>