<svg fill="none" height="58"  width="76" viewBox="0 0 50 70" xmlns="http://www.w3.org/2000/svg"> <clipPath> <path d="m0 0h50v70h-50z"></path> </clipPath> <path d="m17 43.4092 2.3478.9512c.4348.1729.7826.4324 1.087.735.3043.3027.5217.6486.6956 1.0377l3.8261 8.3446 3.8261-8.777c.1739-.3891.4348-.735.7391-1.0377.3044-.3026.6957-.5188 1.1305-.6485l2.1739-.7783c-.087-.0864-.1739-.1729-.2609-.2594-.3913-.5188-.6522-1.2106-.7391-1.9456l-.0435-1.9457-.2174.173-.0435.0432c-.9565.8647-2 1.5133-3.0869 1.9457-1.087.4323-2.2609.6917-3.4348.6917-1.6522 0-3.2609-.4756-4.6957-1.3403-.7391-.4324-1.3913-.908-2.0434-1.5133l-.087 1.9024v.0433c-.0435.735-.3043 1.4268-.7391 1.9456-.1305.173-.2609.3027-.4348.4324zm21.2174-19.6294c0 .1729-.0435.4323-.0435.6918v.1297c-.0869.5621-.1739 1.1674-.2609 1.7294-.1739.6054-.2608 1.2107-.4347 1.8592-.1305.6053-.2609 1.2106-.4348 1.7727-.1739.6053-.3478 1.1674-.5652 1.7295 0 .0432 0 .0432-.0435.0864-.3044.908-.6957 1.816-1.1305 2.6375-.1739.3026-.3913.6485-.5652.9512l.1305-.0433c.4347-.0864.8261-.1729 1.1739-.2594 5.3043-8.1717 5.913-15.8246 4.2174-21.7912-.8696-2.9401-2.2609-5.49105-3.9566-7.43669-1.6956-1.94565-3.6521-3.32922-5.5217-3.97777-2-.69178-3.913-.60531-5.4348.4756-.0869.08648-.2174.17295-.3043.25942-.1739.17295-.3044.30266-.5218.3459-.6521.17294-.9565-.08648-1.2174-1.08092-.0434-.21618-.5217-.25942-1.2608-.21618-1.2609.12971-3.0435.69178-4.8696 1.81594-1.913 1.12415-3.8696 2.76714-5.4348 4.92896-3.91301 5.44784-5.43475 14.18164 2.1739 26.59054.3479.0864.7392.2161 1.174.3026h.1304c-.7826-1.2971-1.4783-2.8104-2-4.4101-.6957-2.1186-1.2174-4.4534-1.3913-6.9611v-.0432c0-.3027 0-.5621 0-.8648 0-.3026 0-.5621 0-.8215 0-.3026.0435-.6053.0435-.8215s.0434-.4756.0869-.7782c.7826-5.8802 4.4348-9.0365 6.4348-10.72269.0435-.04324.1304-.08648.1739-.12971.3478-.17295.7826 0 .9565.3459.8696 1.7727 2.3913 2.8536 4.2174 3.5886 1.9131.735 4.1305 1.1242 6.3044 1.4701 1.913.3026 3.7826.6053 5.2174 1.2106 1.6087.6053 2.7391 1.5133 2.9565 3.113v.1297c.0869 1.3836.0869 2.8104 0 4.194zm-2.9131 7.0475-.1304.3892c-.3478.8647-.6956 1.7294-1.1304 2.5077-.4348.7782-.8696 1.5133-1.3478 2.2051-.2609.3459-.5218.6485-.7827.9512-.0434.0432-.0869.0864-.0869.1297l-.1304.1297c-.3044.3459-.6522.6918-1 .9944l-.0435.0433c-.8696.7782-1.7826 1.3403-2.7392 1.7727-.9565.3891-1.913.562-2.913.562-1.3913 0-2.7391-.3891-4-1.1241-1.3043-.7783-2.5217-1.9024-3.5652-3.3292-.0435-.0433-.0435-.0865-.087-.1297l-.0435-.0433c-1.1304-1.5565-2.0434-3.4157-2.7391-5.4478-.6956-1.9889-1.1304-4.2372-1.3043-6.6152 0-.0432 0-.0432 0-.0865 0-.2594 0-.5188 0-.735 0-.2594 0-.5188 0-.7782 0-.2162.0434-.4756.0434-.7783.0435-.2594.0435-.5188.087-.735.6087-4.756 3.3913-7.6096 5.3044-9.2526 1.0869 1.6862 2.6521 2.7671 4.5217 3.4589 2.0435.8215 4.3913 1.2106 6.6087 1.5565 1.8261.3027 3.6087.6053 4.9565 1.1242 1.1304.4323 1.9131 1.0809 2.0435 2.0321.0435.6485.0435 1.2538.0435 1.9024-.087 3.1995-.8261 6.1828-2.5653 8.2582-1.3913 1.6862-3.4782 2.8103-6.4782 2.9401v-1.1674c0-.3892-.3044-.6918-.6957-.6918h-3.5652c-.3913 0-.6956.3026-.6956.6918v3.8048c0 .3891.3043.6918.6956.6918h3.5652c.3913 0 .6957-.3027.6957-.6918v-1.2106c3.3913-.173 5.7826-1.3836 7.4782-3.3293zm-16.5217 14.8302c.2609.0865.4783.2594.6087.4323.1739.173.3044.3892.4348.6486l4.5217 9.8147c.1739.3459.5652.5188.9565.3459.174-.0865.3044-.2162.3479-.3459l4.4782-10.2471c.087-.2162.2174-.3891.3913-.5188.174-.173.3913-.3027.6522-.3891l3.4783-1.2971.2174.0432c1 .173 2 .3459 2.9565.5621.2174.5188.2609 1.0377.3478 1.7727.1304.9512.2609 2.1618.7826 3.9345l-6.3043-3.5022c-.3479-.1729-.7826-.0864-.9565.2595 0 .0432-.0435.0432-.0435.0864l-6.8261 16.3867-6.8261-16.3867c-.1304-.3459-.5652-.5188-.913-.3891-.0435 0-.087.0432-.1305.0432l-6.2608 3.459c.5217-1.7727.6956-2.9834.7826-3.9346.0869-.6485.1739-1.2106.3478-1.6862 1.0435-.2594 2.1304-.4756 3.2174-.6485zm15.7826-3.0266c.1739-.0432.3478 0 .4783.0865h.0435c1.0434.1729 2.1304.3891 3.1739.6053.1304 0 .2608.0432.3913.0865.9565.2594 1.913.5621 2.8261.9944 4.0434 1.8592 6.1739 5.0155 7.3043 8.7338 1.087 3.6319 1.2174 7.7826 1.2174 11.8036v.8647c0 1.1674-.4783 2.2483-1.2609 3.0266-.7826.7782-1.8261 1.2538-3.0434 1.2538h-41.43483c-1.17391 0-2.26087-.4756-3-1.2538-.782609-.8647-1.26087-1.9024-1.26087-3.0698v-.8647-.0433c0-4.021.130435-8.1285 1.21739-11.7171 1.13044-3.7183 3.26087-6.8314 7.30435-8.7338.78261-.3459 1.60866-.6485 2.43476-.8647.087-.0432.2174-.0865.3044-.0865 1.1739-.3026 2.3913-.5188 3.6087-.735l.5652-.0865h.0435c.3478-.0865.6087-.2594.826-.5621.2174-.3026.3914-.6917.4348-1.1241l.1305-3.286c-.1739-.2594-.3479-.4756-.5653-.735-.5217-.0865-1.0434-.1729-1.5217-.3027-.5652-.0864-1.0869-.2161-1.5652-.3891-.1739-.0432-.3044-.1729-.3913-.3026-8.13045-13.144-6.4348-22.5263-2.2174-28.36323 1.6956-2.33478 3.7826-4.10747 5.8261-5.3181 2.0435-1.21062 4.0435-1.902408 5.5217-2.032117 1.3044-.086473 2.2174.216183 2.6087.907967 1.9131-1.340333 4.3044-1.470043 6.6522-.648548 2.1304.735018 4.3043 2.248298 6.1304 4.410128 1.8261 2.11859 3.3478 4.8425 4.2609 8.042 1.8261 6.3558 1.1739 14.5275-4.5652 23.1748-.087.1297-.2174.2594-.3913.3027-.4348.1297-.9565.2161-1.5218.3459-.4347.0864-.9565.1729-1.4782.2594-.1739.2162-.3479.4323-.5218.6485l.1305 3.286c.0434.4324.1739.8647.4348 1.1241.2173.3027.5217.4756.8695.5621zm6.3478 3.0698c3.6087 1.643 5.5218 4.4966 6.5653 7.8258 1.0434 3.459 1.1739 7.48 1.1304 11.3713v.8647c0 .7782-.3044 1.47-.8261 1.9889-.5217.5188-1.2174.8215-2 .8215h-41.52173c-.78261 0-1.47826-.3027-2-.8215-.52174-.5189-.82609-1.2107-.82609-1.9889v-.8647c0-.0433 0-.0433 0-.0865 0-3.8913.08696-7.8691 1.13044-11.328 1.04348-3.3292 2.95652-6.1828 6.56521-7.8258.34783-.173.73914-.3027 1.13047-.4324-.0435.3027-.087.6486-.1305 1.0377-.1304 1.1674-.34779 2.7671-1.30431 5.3181-.08696.1729-.08696.4324.04348.6053.17391.3459.60869.4756.95652.2594l7.17391-3.9777 7.2174 17.2081c.0869.173.2174.3027.3913.3891.3478.1297.7826-.0432.913-.3891l7.2174-17.2081 7.1739 3.9777c.174.0865.3913.1297.5653.0433.3478-.1298.5652-.5189.4347-.908-.9565-2.5942-1.1304-4.194-1.3043-5.3613-.0435-.4324-.087-.7783-.1739-1.1242.4782.2162 1 .3891 1.4782.6053zm-24.1739-4.756c.0435-.3891.3479-.6486.7392-.6486zm9.6957-7.3935v1.081h-2.1739v-2.3348h2.1304v1.0809.0865c.0435.0432.0435.0432.0435.0864z" clip-rule="evenodd" fill="#093842" fill-rule="evenodd"></path> </svg>