<svg xmlns="http://www.w3.org/2000/svg" viewBox="0 0 656 89" width="656" height="89" class="doodle-shape" preserveAspectRatio="xMidYMid meet" style="width: 100%; height: 100%; transform: translate3d(0px, 0px, 0px);"><defs><clipPath id="__lottie_element_12"><rect width="656" height="89" x="0" y="0"></rect></clipPath><mask id="__lottie_element_13" mask-type="alpha"><g transform="matrix(1,0,0,1,258.5,185)" opacity="1" style="display: block;"><g opacity="1" transform="matrix(1,0,0,1,0,0)"><path stroke-linecap="butt" stroke-linejoin="miter" fill-opacity="0" stroke-miterlimit="4" stroke="rgb(242,255,169)" stroke-opacity="1" stroke-width="49.88502788408432" d=" M-256.5,-128.5 C-232.58200073242188,-95.11499786376953 380.7829895019531,-179.4199981689453 406.75299072265625,-155.2530059814453"></path></g></g></mask></defs><g clip-path="url(#__lottie_element_12)"><g mask="url(#__lottie_element_13)" style="display: block;"><g transform="matrix(1,0,0,1,0,0)" opacity="1"><g opacity="1" transform="matrix(1,0,0,1,328.04400634765625,44.57600021362305)"><path fill="rgb(255,23,233)" fill-opacity="1" d=" M273.9580078125,-41.650001525878906 C274.385009765625,-42.09299850463867 274.97900390625,-42.290000915527344 275.5920104980469,-42.34400177001953 C291.7980041503906,-43.7760009765625 305.1570129394531,-42.65399932861328 318.4179992675781,-42.54199981689453 C325.35101318359375,-42.48400115966797 328.010009765625,-41.09600067138672 326.5509948730469,-34.22100067138672 C325.3909912109375,-33.547000885009766 323.7850036621094,-33.1609992980957 323.1400146484375,-32.15599822998047 C317.3290100097656,-23.107999801635742 307.9460144042969,-17.224000930786133 302.4800109863281,-7.664999961853027 C298.1629943847656,-0.11400000005960464 290.39599609375,3.5390000343322754 281.3269958496094,3.931999921798706 C265.9309997558594,4.598999977111816 250.55299377441406,5.690999984741211 235.15699768066406,6.335000038146973 C165.4029998779297,9.253000259399414 95.97799682617188,16.62299919128418 26.38800048828125,21.749000549316406 C-48.611000061035156,27.27199935913086 -123.58300018310547,33.19200134277344 -198.5260009765625,39.41699981689453 C-214.70399475097656,40.76100158691406 -231.0019989013672,39.29800033569336 -247.06500244140625,42.15399932861328 C-253.8769989013672,43.777000427246094 -294.62701416015625,40.85900115966797 -318.7309875488281,42.374000549316406 C-325.8389892578125,42.82099914550781 -327.93701171875,40.55099868774414 -326.7149963378906,33.99399948120117 C-326.5220031738281,32.957000732421875 -326.68798828125,31.85300064086914 -326.68798828125,30.77899932861328 C-316.9700012207031,22.256000518798828 -308.1929931640625,12.848999977111816 -300.4540100097656,2.500999927520752 C-297.1409912109375,-1.9270000457763672 -293.23199462890625,-3.8310000896453857 -287.93798828125,-3.01200008392334 C-281.0069885253906,-1.940999984741211 -274.0660095214844,-0.8930000066757202 -267.0660095214844,-0.47099998593330383 C-227.94900512695312,1.8819999694824219 -189.20799255371094,-2.872999906539917 -150.3769989013672,-5.868000030517578 C-123.13800048828125,-7.968999862670898 -95.91699981689453,-10.3149995803833 -68.69999694824219,-12.687000274658203 C-23.98699951171875,-16.58300018310547 20.70599937438965,-20.709999084472656 65.427001953125,-24.503000259399414 C92.35399627685547,-26.785999298095703 119.33899688720703,-28.389999389648438 146.26300048828125,-30.709999084472656 C185.5019989013672,-34.090999603271484 224.72000122070312,-37.68299865722656 264.0889892578125,-39.27000045776367 C267.5169982910156,-39.40800094604492 271.2569885253906,-38.84400177001953 273.9580078125,-41.650001525878906z"></path></g></g></g></g></svg>